<svg width="619" height="110" viewBox="0 0 619 110" fill="none" xmlns="http://www.w3.org/2000/svg">
<rect x="0.5" y="0.5" width="617.63" height="108.82" rx="7.5" fill="#0A0A0A"/>
<rect x="0.5" y="0.5" width="617.63" height="108.82" rx="7.5" stroke="#262626"/>
<path d="M29.1788 69.4099V40.7195H38.0688C40.0623 40.7195 41.7999 41.0832 43.2815 41.8105C44.7902 42.5379 45.9485 43.5751 46.7567 44.922C47.5918 46.2421 48.0094 47.818 48.0094 49.6499C48.0094 51.4818 47.5918 53.0712 46.7567 54.4182C45.9485 55.7382 44.7902 56.7619 43.2815 57.4892C41.7999 58.1897 40.0623 58.5399 38.0688 58.5399H33.4217V69.4099H29.1788ZM33.4217 54.5394H37.6243C39.6717 54.5394 41.1803 54.1218 42.1501 53.2867C43.1199 52.4516 43.6048 51.2393 43.6048 49.6499C43.6048 48.0335 43.1199 46.8078 42.1501 45.9727C41.1803 45.1375 39.6717 44.72 37.6243 44.72H33.4217V54.5394ZM62.056 70.0565C59.7661 70.0565 57.8265 69.4773 56.2371 68.3189C54.6746 67.1605 53.4758 65.4633 52.6407 63.2273C51.8055 60.9914 51.388 58.284 51.388 55.1051C51.388 51.8724 51.8055 49.138 52.6407 46.9021C53.4758 44.6661 54.6746 42.9689 56.2371 41.8105C57.8265 40.6521 59.7661 40.0729 62.056 40.0729C64.3458 40.0729 66.2854 40.6521 67.8749 41.8105C69.4643 42.9689 70.6631 44.6661 71.4713 46.9021C72.3064 49.138 72.724 51.8724 72.724 55.1051C72.724 58.284 72.3064 60.9914 71.4713 63.2273C70.6631 65.4633 69.4643 67.1605 67.8749 68.3189C66.2854 69.4773 64.3458 70.0565 62.056 70.0565ZM62.056 66.0964C63.4029 66.0964 64.5344 65.6923 65.4503 64.8841C66.3932 64.0759 67.1071 62.8502 67.592 61.2069C68.0769 59.5636 68.3194 57.5297 68.3194 55.1051C68.3194 52.6806 68.0769 50.6466 67.592 49.0033C67.1071 47.3331 66.3932 46.0939 65.4503 45.2857C64.5344 44.4506 63.4029 44.033 62.056 44.033C60.709 44.033 59.5641 44.4506 58.6212 45.2857C57.7053 46.0939 57.0048 47.3331 56.5199 49.0033C56.035 50.6466 55.7926 52.6806 55.7926 55.1051C55.7926 57.5297 56.035 59.5636 56.5199 61.2069C57.0048 62.8502 57.7053 64.0759 58.6212 64.8841C59.5641 65.6923 60.709 66.0964 62.056 66.0964ZM78.3654 69.4099L75.2943 40.7195H79.5373L81.9214 65.9347H81.4365L84.4268 43.9522H88.1444L91.1347 65.9347H90.6498L93.0339 40.7195H97.2769L94.2058 69.4099H88.6697L85.8007 48.3972H86.7705L83.9015 69.4099H78.3654ZM101.949 69.4099V40.7195H119.567V44.72H106.191V53.0847H119.082V56.9639H106.191V65.4094H119.89V69.4099H101.949ZM125.33 69.4099V40.7195H134.26C137.304 40.7195 139.688 41.4873 141.412 43.0228C143.163 44.5584 144.039 46.6462 144.039 49.2862C144.039 50.6601 143.729 51.8724 143.11 52.923C142.517 53.9737 141.722 54.7953 140.725 55.388C139.756 55.9806 138.718 56.3174 137.614 56.3982L137.452 55.9133C139.446 55.9941 140.927 56.4521 141.897 57.2872C142.894 58.0954 143.473 59.4154 143.635 61.2473L144.362 69.4099H140.119L139.473 62.0555C139.392 61.1126 139.19 60.3583 138.867 59.7926C138.543 59.2268 138.045 58.8227 137.371 58.5803C136.698 58.3378 135.769 58.2166 134.583 58.2166H129.573V69.4099H125.33ZM129.573 54.2565H134.179C135.957 54.2565 137.318 53.839 138.26 53.0038C139.203 52.1687 139.675 50.9969 139.675 49.4883C139.675 47.9527 139.203 46.7808 138.26 45.9727C137.318 45.1375 135.957 44.72 134.179 44.72H129.573V54.2565ZM150.408 69.4099V40.7195H168.026V44.72H154.651V53.0847H167.541V56.9639H154.651V65.4094H168.349V69.4099H150.408ZM174.435 69.4099V40.7195H181.426C183.958 40.7195 186.154 41.2852 188.013 42.4167C189.899 43.5212 191.34 45.151 192.337 47.3062C193.36 49.4344 193.872 52.034 193.872 55.1051C193.872 58.1762 193.36 60.7758 192.337 62.9041C191.34 65.0323 189.899 66.6486 188.013 67.7531C186.154 68.8577 183.958 69.4099 181.426 69.4099H174.435ZM178.678 65.4094H181.305C183.918 65.4094 185.925 64.5608 187.326 62.8636C188.754 61.1395 189.468 58.5534 189.468 55.1051C189.468 51.6569 188.754 49.0707 187.326 47.3466C185.925 45.5955 183.918 44.72 181.305 44.72H178.678V65.4094ZM222.895 69.4099V40.7195H231.219C234.371 40.7195 236.768 41.4064 238.412 42.7804C240.055 44.1543 240.877 46.067 240.877 48.5184C240.877 49.7038 240.607 50.7679 240.069 51.7108C239.53 52.6267 238.735 53.3675 237.684 53.9332C236.661 54.472 235.435 54.7549 234.007 54.7818V54.5394C235.758 54.5394 237.226 54.8357 238.412 55.4284C239.624 55.9941 240.54 56.8023 241.16 57.8529C241.779 58.8766 242.089 60.0754 242.089 61.4493C242.089 63.9816 241.213 65.9482 239.462 67.3491C237.738 68.723 235.314 69.4099 232.189 69.4099H222.895ZM227.138 65.4498H232.229C234.088 65.4498 235.462 65.0861 236.351 64.3588C237.24 63.6045 237.684 62.5673 237.684 61.2473C237.684 59.8464 237.213 58.7554 236.27 57.9742C235.354 57.1929 234.007 56.8023 232.229 56.8023H227.138V65.4498ZM227.138 52.8826H231.3C233.078 52.8826 234.384 52.5324 235.219 51.832C236.055 51.1046 236.472 50.0944 236.472 48.8013C236.472 47.4813 236.055 46.471 235.219 45.7706C234.384 45.0433 233.078 44.6796 231.3 44.6796H227.138V52.8826ZM253.792 69.4099V57.6105L245.266 40.7195H249.953L255.893 53.2463L261.833 40.7195H266.521L258.035 57.6105V69.4099H253.792Z" fill="#71717A"/>
<g clip-path="url(#clip0_78_21)">
<path d="M365.31 25V37.79L352.52 51.4H339.73V37.79L352.52 25H365.31Z" fill="#FAFAFA"/>
<path d="M331.58 57.78V71.44L318.8 84.23H306V71.44L318.8 57.78H331.58Z" fill="#FAFAFA"/>
<path d="M365.31 84.23V71.44L352.52 57.78H339.73V71.44L352.52 84.23H365.31Z" fill="#FAFAFA"/>
<path d="M331.58 51.4V37.79L327.2 33.26H314.4V46.19L318.8 51.4H331.58Z" fill="#FAFAFA"/>
<path d="M410.11 84.82C406.54 84.82 403.43 84.1 400.76 82.67C398.1 81.23 395.98 79.23 394.4 76.66C392.82 74.09 391.9 71.09 391.62 67.66L399.12 67.17C399.44 69.53 400.09 71.52 401.07 73.15C402.04 74.77 403.32 75.99 404.89 76.8C406.46 77.61 408.29 78.02 410.38 78.02C412.47 78.02 414.13 77.75 415.52 77.22C416.91 76.69 417.97 75.91 418.72 74.89C419.46 73.87 419.83 72.64 419.83 71.21C419.83 69.78 419.48 68.43 418.79 67.32C418.1 66.21 416.84 65.19 415.04 64.26C413.23 63.33 410.59 62.38 407.12 61.41C403.74 60.48 400.98 59.44 398.85 58.28C396.72 57.12 395.17 55.69 394.19 53.97C393.22 52.26 392.73 50.13 392.73 47.58C392.73 44.76 393.39 42.26 394.71 40.11C396.03 37.96 397.93 36.28 400.41 35.07C402.89 33.87 405.86 33.26 409.34 33.26C412.82 33.26 415.7 33.93 418.13 35.27C420.56 36.61 422.48 38.48 423.9 40.86C425.31 43.25 426.18 46.04 426.51 49.23L419.01 49.65C418.78 47.75 418.26 46.08 417.45 44.65C416.64 43.21 415.54 42.09 414.15 41.28C412.76 40.47 411.09 40.06 409.15 40.06C406.42 40.06 404.25 40.72 402.65 42.04C401.05 43.36 400.25 45.09 400.25 47.22C400.25 48.66 400.57 49.84 401.22 50.76C401.87 51.69 403 52.52 404.62 53.26C406.24 54 408.51 54.77 411.43 55.55C415.37 56.62 418.49 57.84 420.81 59.23C423.13 60.62 424.79 62.29 425.81 64.23C426.83 66.18 427.34 68.49 427.34 71.18C427.34 73.87 426.62 76.24 425.19 78.3C423.75 80.36 421.75 81.96 419.18 83.09C416.61 84.22 413.59 84.79 410.11 84.79V84.82Z" fill="#FAFAFA"/>
<path d="M449.33 84.82C445.39 84.82 442.07 83.82 439.36 81.83C436.65 79.84 434.58 76.92 433.14 73.08C431.7 69.24 430.99 64.58 430.99 59.11C430.99 53.64 431.71 48.85 433.14 45.01C434.58 41.17 436.65 38.25 439.36 36.26C442.07 34.27 445.39 33.27 449.33 33.27C453.27 33.27 456.6 34.27 459.34 36.26C462.07 38.25 464.15 41.17 465.56 45.01C466.97 48.86 467.68 53.56 467.68 59.11C467.68 64.66 466.97 69.23 465.56 73.08C464.15 76.93 462.07 79.84 459.34 81.83C456.61 83.82 453.27 84.82 449.33 84.82ZM449.33 78.01C451.65 78.01 453.6 77.32 455.2 75.93C456.8 74.54 458.01 72.43 458.85 69.61C459.68 66.79 460.1 63.29 460.1 59.12C460.1 54.95 459.68 51.44 458.85 48.59C458.02 45.74 456.8 43.61 455.2 42.2C453.6 40.79 451.64 40.08 449.33 40.08C447.02 40.08 445.06 40.79 443.46 42.2C441.86 43.61 440.65 45.74 439.81 48.59C438.98 51.44 438.56 54.95 438.56 59.12C438.56 63.29 438.98 66.79 439.81 69.61C440.64 72.44 441.86 74.54 443.46 75.93C445.06 77.32 447.01 78.01 449.33 78.01Z" fill="#FAFAFA"/>
<path d="M490.03 84.82C486.05 84.82 482.68 83.78 479.92 81.69C477.16 79.61 475.07 76.64 473.63 72.8C472.19 68.96 471.48 64.39 471.48 59.11C471.48 53.83 472.2 49.2 473.63 45.35C475.07 41.51 477.16 38.53 479.92 36.42C482.68 34.31 486.05 33.26 490.03 33.26C494.52 33.26 498.31 34.74 501.39 37.71C504.47 40.67 506.5 44.82 507.47 50.15L499.83 50.57C499.14 47.14 497.92 44.54 496.18 42.75C494.44 40.97 492.39 40.07 490.03 40.07C487.67 40.07 485.61 40.81 483.99 42.29C482.37 43.77 481.14 45.93 480.31 48.75C479.48 51.58 479.06 55.03 479.06 59.1C479.06 63.17 479.48 66.55 480.31 69.35C481.14 72.15 482.37 74.3 483.99 75.78C485.61 77.26 487.63 78 490.03 78C492.58 78 494.75 77.03 496.56 75.08C498.37 73.13 499.57 70.29 500.17 66.53L507.74 66.88C506.91 72.53 504.94 76.93 501.83 80.08C498.73 83.23 494.79 84.8 490.02 84.8L490.03 84.82Z" fill="#FAFAFA"/>
<path d="M548.71 83.7101V73.2901H525.22V66.9701L547.94 34.3801H556V66.5501H559.06L560.65 69.6201C560.79 69.7801 560.79 70.0201 560.65 70.1801L559.02 73.2901H556V83.7101H548.7H548.71ZM532.38 66.5401H548.71V44.1001L532.38 66.5401Z" fill="#FAFAFA"/>
<path d="M593.63 80.3501V83.7101H565.49V34.3701H572.79V76.8301H593.63V80.3501Z" fill="#FAFAFA"/>
<path d="M520.5 33.26V83.7H513.5V33.26H520.5Z" fill="#FAFAFA"/>
</g>
<defs>
<clipPath id="clip0_78_21">
<rect width="287.63" height="59.82" fill="white" transform="translate(306 25)"/>
</clipPath>
</defs>
</svg>
