<svg width="288" height="60" viewBox="0 0 288 60" fill="none" xmlns="http://www.w3.org/2000/svg">
<g clip-path="url(#clip0_1_1585)">
<path d="M59.3105 0V12.79L46.5205 26.4H33.7305V12.79L46.5205 0H59.3105Z" fill="#FAFAFA"/>
<path d="M25.58 32.7798V46.4398L12.8 59.2298H0V46.4398L12.8 32.7798H25.58Z" fill="#FAFAFA"/>
<path d="M59.3105 59.2298V46.4398L46.5205 32.7798H33.7305V46.4398L46.5205 59.2298H59.3105Z" fill="#FAFAFA"/>
<path d="M25.5804 26.3998V12.7898L21.2004 8.25977H8.40039V21.1898L12.8004 26.3998H25.5804Z" fill="#FAFAFA"/>
<path d="M104.11 59.8198C100.54 59.8198 97.4301 59.0998 94.7601 57.6698C92.1001 56.2298 89.9801 54.2298 88.4001 51.6598C86.8201 49.0898 85.9001 46.0898 85.6201 42.6598L93.1201 42.1698C93.4401 44.5298 94.0901 46.5198 95.0701 48.1498C96.0401 49.7698 97.3201 50.9898 98.8901 51.7998C100.46 52.6098 102.29 53.0198 104.38 53.0198C106.47 53.0198 108.13 52.7498 109.52 52.2198C110.91 51.6898 111.97 50.9098 112.72 49.8898C113.46 48.8698 113.83 47.6398 113.83 46.2098C113.83 44.7798 113.48 43.4298 112.79 42.3198C112.1 41.2098 110.84 40.1898 109.04 39.2598C107.23 38.3298 104.59 37.3798 101.12 36.4098C97.7401 35.4798 94.9801 34.4398 92.8501 33.2798C90.7201 32.1198 89.1701 30.6898 88.1901 28.9698C87.2201 27.2598 86.7301 25.1298 86.7301 22.5798C86.7301 19.7598 87.3901 17.2598 88.7101 15.1098C90.0301 12.9598 91.9301 11.2798 94.4101 10.0698C96.8901 8.86977 99.8601 8.25977 103.34 8.25977C106.82 8.25977 109.7 8.92977 112.13 10.2698C114.56 11.6098 116.48 13.4798 117.9 15.8598C119.31 18.2498 120.18 21.0398 120.51 24.2298L113.01 24.6498C112.78 22.7498 112.26 21.0798 111.45 19.6498C110.64 18.2098 109.54 17.0898 108.15 16.2798C106.76 15.4698 105.09 15.0598 103.15 15.0598C100.42 15.0598 98.2501 15.7198 96.6501 17.0398C95.0501 18.3598 94.2501 20.0898 94.2501 22.2198C94.2501 23.6598 94.5701 24.8398 95.2201 25.7598C95.8701 26.6898 97.0001 27.5198 98.6201 28.2598C100.24 28.9998 102.51 29.7698 105.43 30.5498C109.37 31.6198 112.49 32.8398 114.81 34.2298C117.13 35.6198 118.79 37.2898 119.81 39.2298C120.83 41.1798 121.34 43.4898 121.34 46.1798C121.34 48.8698 120.62 51.2398 119.19 53.2998C117.75 55.3598 115.75 56.9598 113.18 58.0898C110.61 59.2198 107.59 59.7898 104.11 59.7898V59.8198Z" fill="#FAFAFA"/>
<path d="M143.33 59.8195C139.39 59.8195 136.07 58.8195 133.36 56.8295C130.65 54.8395 128.58 51.9195 127.14 48.0795C125.7 44.2395 124.99 39.5795 124.99 34.1095C124.99 28.6395 125.71 23.8495 127.14 20.0095C128.58 16.1695 130.65 13.2495 133.36 11.2595C136.07 9.26953 139.39 8.26953 143.33 8.26953C147.27 8.26953 150.6 9.26953 153.34 11.2595C156.07 13.2495 158.15 16.1695 159.56 20.0095C160.97 23.8595 161.68 28.5595 161.68 34.1095C161.68 39.6595 160.97 44.2295 159.56 48.0795C158.15 51.9295 156.07 54.8395 153.34 56.8295C150.61 58.8195 147.27 59.8195 143.33 59.8195ZM143.33 53.0095C145.65 53.0095 147.6 52.3195 149.2 50.9295C150.8 49.5395 152.01 47.4295 152.85 44.6095C153.68 41.7895 154.1 38.2895 154.1 34.1195C154.1 29.9495 153.68 26.4395 152.85 23.5895C152.02 20.7395 150.8 18.6095 149.2 17.1995C147.6 15.7895 145.64 15.0795 143.33 15.0795C141.02 15.0795 139.06 15.7895 137.46 17.1995C135.86 18.6095 134.65 20.7395 133.81 23.5895C132.98 26.4395 132.56 29.9495 132.56 34.1195C132.56 38.2895 132.98 41.7895 133.81 44.6095C134.64 47.4395 135.86 49.5395 137.46 50.9295C139.06 52.3195 141.01 53.0095 143.33 53.0095Z" fill="#FAFAFA"/>
<path d="M184.03 59.8198C180.05 59.8198 176.68 58.7798 173.92 56.6898C171.16 54.6098 169.07 51.6398 167.63 47.7998C166.19 43.9598 165.48 39.3898 165.48 34.1098C165.48 28.8298 166.2 24.1998 167.63 20.3498C169.07 16.5098 171.16 13.5298 173.92 11.4198C176.68 9.30977 180.05 8.25977 184.03 8.25977C188.52 8.25977 192.31 9.73977 195.39 12.7098C198.47 15.6698 200.5 19.8198 201.47 25.1498L193.83 25.5698C193.14 22.1398 191.92 19.5398 190.18 17.7498C188.44 15.9698 186.39 15.0698 184.03 15.0698C181.67 15.0698 179.61 15.8098 177.99 17.2898C176.37 18.7698 175.14 20.9298 174.31 23.7498C173.48 26.5798 173.06 30.0298 173.06 34.0998C173.06 38.1698 173.48 41.5498 174.31 44.3498C175.14 47.1498 176.37 49.2998 177.99 50.7798C179.61 52.2598 181.63 52.9998 184.03 52.9998C186.58 52.9998 188.75 52.0298 190.56 50.0798C192.37 48.1298 193.57 45.2898 194.17 41.5298L201.74 41.8798C200.91 47.5298 198.94 51.9298 195.83 55.0798C192.73 58.2298 188.79 59.7998 184.02 59.7998L184.03 59.8198Z" fill="#FAFAFA"/>
<path d="M242.71 58.7099V48.2899H219.22V41.9699L241.94 9.37988H250V41.5499H253.06L254.65 44.6199C254.79 44.7799 254.79 45.0199 254.65 45.1799L253.02 48.2899H250V58.7099H242.7H242.71ZM226.38 41.5399H242.71V19.0999L226.38 41.5399Z" fill="#FAFAFA"/>
<path d="M287.63 55.3496V58.7096H259.49V9.36963H266.79V51.8296H287.63V55.3496Z" fill="#FAFAFA"/>
<path d="M214.5 8.25977V58.6998H207.5V8.25977H214.5Z" fill="#FAFAFA"/>
</g>
<defs>
<clipPath id="clip0_1_1585">
<rect width="287.63" height="59.82" fill="white"/>
</clipPath>
</defs>
</svg>
